<svg xmlns="http://www.w3.org/2000/svg" viewBox="0 0 1440 320">
  <path fill="#0dbeaf" fill-opacity="1" d="M0,96L24,90.7C48,85,96,75,144,74.7C192,75,240,85,288,90.7C336,96,384,96,432,122.7C480,149,528,203,576,224C624,245,672,235,720,218.7C768,203,816,181,864,170.7C912,160,960,160,1008,176C1056,192,1104,224,1152,218.7C1200,213,1248,171,1296,149.3C1344,128,1392,128,1416,128L1440,128L1440,320L1416,320C1392,320,1344,320,1296,320C1248,320,1200,320,1152,320C1104,320,1056,320,1008,320C960,320,912,320,864,320C816,320,768,320,720,320C672,320,624,320,576,320C528,320,480,320,432,320C384,320,336,320,288,320C240,320,192,320,144,320C96,320,48,320,24,320L0,320Z"></path>
</svg>