<svg xmlns="http://www.w3.org/2000/svg" width="907.972" height="753.546" viewBox="0 0 907.972 753.546">
  <path id="Icon_simple-wechat" data-name="Icon simple-wechat" d="M890.609,408.144c-23.039-52.207-66.507-93.67-116.974-119.206-89.055-45.095-199.786-44.83-288.614,1.135-61.7,31.665-113.229,88.411-127.831,157.453-12.03,50.845-1.248,105.587,25.725,149.849,40.139,66.658,112.7,109.218,188.059,122.875,54.59,11.085,111.072,4.5,164.111-10.782,31.854,12.333,60.227,32.308,91.1,47.138-7.982-26.747-16.494-53.19-25.574-79.521,34.653-24.59,66.053-55.271,84.893-93.783C913.649,529.772,915.351,463.34,890.609,408.144ZM515.174,50.035c-94.389-53.115-211.93-61.1-313.469-24.4C134.971,49.657,74.592,94.3,37.291,155.017,3.432,209.872-9.241,278.27,7.064,341.032c16.381,69.609,64.729,127.983,123.405,166.949-11.349,32.156-22.131,64.275-32.346,96.659,36.885-19.294,73.771-39.458,110.694-59.054a410.912,410.912,0,0,0,138.462,19.6c-12.484-35.675-15.322-74.338-9.647-111.64,8.512-51.866,36.885-99.307,75.435-134.452,65.3-61.1,157.794-86.86,245.751-80.618C642.324,157.7,585.577,89.455,514.152,50.073h1.021ZM580.735,427.93c-7.907,24.666-43.733,32.081-61.1,13.317-19.143-17.364-11.69-53.645,13.43-61.4C560.836,368.119,592.916,400.162,580.735,427.93Zm181.4,3.48c-9.685,22.169-43.165,27.352-59.622,10.214C694.607,434.4,692.3,423.5,689.5,414.008c3.934-17.327,15.889-35.3,35.183-36.129,26.671-3.707,50.542,29.243,36.885,53.569h.567ZM491.453,187.249c.3,36.356-48.235,59.054-75.473,34.388-28.26-20.24-20.24-69.5,12.938-79.672,29.7-11.917,64.8,13.014,62.459,44.83l.076.454Zm-229.219,9.231c-6.507,31.589-48.84,46.835-73.619,25.649-28.714-20.24-20.656-70.4,13.052-80.618C234.694,128.8,272.222,162.318,262.235,196.479Z" transform="translate(0.001 -3.061)" fill="#f3f2f2"/>
</svg>
